<svg width="66" height="20" viewBox="0 0 66 20" fill="none" xmlns="http://www.w3.org/2000/svg">
<g clip-path="url(#clip0_885_12905)">
<path d="M10.0774 15.1805C10.0774 14.3833 10.0862 12.2527 10.0662 11.9902C10.0836 8.8197 7.73565 6.58323 6.25231 6.75757C5.22589 6.84503 4.36567 7.25593 3.90379 8.43801C3.4757 9.53966 3.85843 11.005 5.28172 11.3488C6.80362 11.7181 7.69231 12.0253 8.33545 12.4588C9.12349 12.9894 9.76682 14.0033 9.7839 15.1817" fill="#0060AF"/>
<path d="M10.685 20C8.00155 20 5.24368 19.3511 2.48948 18.0677L2.4219 18.0351L2.38958 17.9674C1.15361 15.406 0.5 12.6045 0.5 9.86352C0.5 7.12668 1.1268 4.44502 2.36368 1.88706L2.39766 1.81908L2.46653 1.78519C5.0143 0.600231 7.75509 0 10.6153 0C13.2797 0 16.1251 0.668205 18.8428 1.93574L18.9126 1.96621L18.9447 2.03545C20.2044 4.64408 20.8686 7.44491 20.8686 10.1405C20.8686 12.8255 20.2308 15.5095 18.9697 18.1165L18.9364 18.1851L18.8663 18.2168C16.3574 19.3828 13.5281 20 10.685 20ZM2.74439 17.7165C5.41999 18.9521 8.08842 19.5761 10.685 19.5761C13.4383 19.5761 16.1766 18.9852 18.614 17.8652C19.8248 15.339 20.4385 12.739 20.4385 10.1405C20.4385 7.53146 19.7979 4.81753 18.5862 2.28571C15.9488 1.06848 13.1944 0.422992 10.6153 0.422992C7.84619 0.422992 5.19208 0.999603 2.72125 2.13714C1.53524 4.61649 0.931579 7.21449 0.931579 9.86352C0.931579 12.5176 1.55893 15.2326 2.74439 17.7165Z" fill="#0060AF"/>
<path d="M9.44137 15.1821C9.44633 14.1604 8.86545 13.2569 8.10624 12.7713C7.43279 12.3422 6.52869 12.0602 5.07014 11.6971C4.61928 11.5838 4.14766 11.3323 4.00166 11.0117C3.61544 11.3938 3.54529 12.2527 3.61324 12.7547C3.69221 13.3356 4.38365 14.2931 5.42476 14.3306C6.06056 14.3556 6.8644 14.1962 7.24988 14.1158C7.91488 13.9748 8.96701 14.3838 9.1345 15.1809" fill="#0060AF"/>
<path d="M10.6152 1.81641C8.84992 1.81641 7.32507 2.95935 7.33058 4.9371C7.33609 6.60022 8.69841 7.49056 9.18453 8.1265C9.91913 9.0848 10.3167 10.2191 10.3581 11.9547C10.3902 13.336 10.3885 14.7 10.3957 15.1834H10.7854C10.7786 14.6776 10.761 13.2296 10.7812 11.912C10.8076 10.1758 11.2195 9.0848 11.9545 8.1265C12.4449 7.49056 13.8061 6.60022 13.809 4.9371C13.8156 2.95935 12.2917 1.81641 10.5279 1.81641" fill="#0060AF"/>
<path d="M11.0632 15.1805C11.0632 14.3833 11.054 12.2527 11.0736 11.9902C11.0564 8.8197 13.4029 6.58323 14.8875 6.75757C15.9139 6.84503 16.7732 7.25593 17.2364 8.43801C17.6641 9.53966 17.2792 11.005 15.8575 11.3488C14.3349 11.7181 13.4473 12.0253 12.8025 12.4588C12.0154 12.9894 11.4171 14.0033 11.3987 15.1817" fill="#0060AF"/>
<path d="M11.6988 15.1821C11.6933 14.1604 12.274 13.2569 13.031 12.7713C13.7072 12.3422 14.6124 12.0602 16.0696 11.6971C16.5214 11.5838 16.9925 11.3323 17.1359 11.0117C17.524 11.3938 17.5939 12.2527 17.526 12.7547C17.4454 13.3356 16.7558 14.2931 15.7165 14.3306C15.0809 14.3556 14.2728 14.1962 13.889 14.1158C13.2266 13.9748 12.1715 14.3838 12.0033 15.1809" fill="#0060AF"/>
<path d="M12.2435 18.4805L12.0176 16.8622L12.5628 16.7811C12.6956 16.7632 12.8572 16.786 12.9219 16.8676C12.9933 16.9529 13.0152 17.0234 13.0289 17.1352C13.0495 17.2735 13.0087 17.4334 12.8501 17.5131V17.518C13.0273 17.518 13.1344 17.6429 13.1654 17.8539C13.17 17.8984 13.1834 18.0061 13.17 18.0959C13.134 18.3095 13.0041 18.3782 12.785 18.4083L12.2435 18.4805ZM12.5944 18.1907C12.6591 18.1817 12.7246 18.1783 12.7759 18.1462C12.8543 18.0959 12.8471 17.9882 12.8363 17.9084C12.8089 17.7327 12.7623 17.666 12.5726 17.6936L12.4534 17.7116L12.5289 18.1997L12.5944 18.1907ZM12.4802 17.443C12.5524 17.4315 12.6503 17.423 12.691 17.3557C12.7123 17.3108 12.7397 17.2751 12.7217 17.1752C12.6995 17.0568 12.6594 16.9834 12.5063 17.0119L12.3636 17.0344L12.4198 17.4491" fill="#0060AF"/>
<path d="M14.6055 17.5073C14.6097 17.5374 14.6146 17.5709 14.6165 17.601C14.6605 17.8962 14.6055 18.1405 14.2675 18.2078C13.768 18.3023 13.6723 17.9975 13.5844 17.5709L13.5375 17.3402C13.4687 16.9319 13.4391 16.6229 13.9261 16.5277C14.2007 16.4785 14.3821 16.5858 14.4576 16.8541C14.4694 16.8941 14.4841 16.9338 14.4896 16.974L14.1908 17.0345C14.1562 16.9338 14.1105 16.7536 13.9761 16.7688C13.7348 16.7973 13.8145 17.0921 13.8393 17.2152L13.9291 17.6582C13.9561 17.7922 14.0097 18.0062 14.2185 17.9649C14.388 17.9315 14.3142 17.6723 14.2991 17.5661" fill="#0060AF"/>
<path d="M15.0848 17.9971L14.9814 16.3224L15.3829 16.2021L16.2246 17.6586L15.9085 17.7515L15.7091 17.3813L15.3581 17.4848L15.4035 17.9057L15.0848 17.9971ZM15.3287 17.2144L15.5823 17.1423L15.2455 16.4647" fill="#0060AF"/>
<path d="M5.16929 16.731C5.2949 16.3362 5.40748 16.0455 5.88681 16.1746C6.14337 16.2449 6.30241 16.356 6.29488 16.6486C6.29364 16.7137 6.27174 16.78 6.25741 16.8444L5.95898 16.7635C5.9981 16.6019 6.02289 16.4737 5.82014 16.4124C5.58581 16.3493 5.52869 16.6282 5.49637 16.7487L5.37498 17.1877C5.33641 17.3181 5.29013 17.5335 5.49637 17.5891C5.6668 17.6341 5.77019 17.4699 5.8319 17.2301L5.62309 17.1758L5.69526 16.9218L6.18616 17.0768L5.95311 17.923L5.72722 17.8628L5.77809 17.6839H5.77166C5.66771 17.8301 5.54081 17.8455 5.4297 17.8245C4.9388 17.6942 4.99004 17.3792 5.10721 16.9584" fill="#0060AF"/>
<path d="M6.99624 17.4457L6.8484 18.1341L6.51562 18.0635L6.87025 16.4561L7.43755 16.5819C7.76959 16.6522 7.86986 16.7974 7.82285 17.0961C7.79603 17.2676 7.7099 17.4524 7.49962 17.4375L7.49742 17.4346C7.67519 17.4958 7.69025 17.5838 7.65921 17.7359C7.64581 17.8007 7.55343 18.1935 7.61716 18.257L7.61936 18.3052L7.27502 18.217C7.26069 18.1081 7.30936 17.9123 7.32864 17.8039C7.34811 17.708 7.37915 17.5728 7.27997 17.5219C7.20229 17.4813 7.17346 17.4833 7.08567 17.4635L6.99624 17.4457ZM7.05298 17.1968L7.27704 17.2561C7.41312 17.2754 7.48879 17.2061 7.5156 17.0448C7.53984 16.8967 7.50844 16.8388 7.38631 16.8102L7.1461 16.7624" fill="#0060AF"/>
<path d="M9.13092 16.8152L9.46003 16.8528L9.31825 17.9827C9.24938 18.341 9.10833 18.4977 8.70688 18.4486C8.29844 18.3979 8.20147 18.2153 8.22626 17.8542L8.36896 16.7251L8.70063 16.7624L8.5583 17.8662C8.54324 17.9861 8.51496 18.1637 8.73222 18.1852C8.92487 18.1996 8.96858 18.0743 8.99025 17.9185" fill="#0060AF"/>
<path d="M9.82275 18.5104L9.92174 16.8945L10.554 16.9214C10.8528 16.9358 10.9311 17.1754 10.9217 17.4041C10.9131 17.5431 10.8688 17.6983 10.7454 17.7825C10.6442 17.8541 10.5142 17.8711 10.3935 17.8653L10.1875 17.8541L10.1463 18.5313L9.82275 18.5104ZM10.1968 17.6076L10.3643 17.6168C10.5004 17.6217 10.5906 17.5689 10.6023 17.3727C10.609 17.1843 10.5364 17.1524 10.3601 17.1448L10.2273 17.1403" fill="#0060AF"/>
<path d="M54.4188 3.37811L51.9057 7.85631C50.9571 7.10011 49.7988 6.54352 48.321 6.54352C44.8238 6.54352 43.4032 9.10293 43.4032 10.9058C43.4032 12.244 44.2958 14.2185 47.4075 14.2185C48.7137 14.2185 50.5705 13.3264 51.105 12.9205L48.6194 18.116C47.4347 18.348 47.0456 18.4919 46.0427 18.5224C40.4731 18.6855 38.2225 15.3265 38.2241 11.894C38.2278 7.35651 42.337 1.83814 49.1489 1.83814C49.5663 1.83814 50.0769 1.97986 50.5134 2.1369L50.9546 1.58301" fill="#0060AF"/>
<path d="M64.7883 1.72363L65.5 18H60.2039L60.2008 15.2085H56.5895L55.4009 18H49.6572L55.662 6.37727L54.308 6.36862L56.8807 1.72363H64.7883ZM60.1664 6.7029L58.1246 11.4371H60.2279" fill="#0060AF"/>
<path d="M34.8809 1.7237C37.5036 1.73812 38.9857 3.13583 38.9857 5.15488C38.9857 7.01615 37.4226 8.66377 35.7068 9.5157C37.4733 10.1532 37.6261 11.7183 37.6261 12.8255C37.6261 15.5005 34.8921 18.0001 31.3383 18.0001H23.5879L26.6111 6.53925L25.3693 6.53222L27.9079 1.7237C27.9079 1.7237 32.7482 1.70927 34.8809 1.7237ZM32.3078 8.32281C32.8503 8.32281 33.8082 8.18794 34.0477 7.15714C34.3101 6.03819 33.4111 6.00807 32.9799 6.00807L31.4391 6.00145L30.9018 8.32286L32.3078 8.32281ZM30.1293 11.199L29.4199 13.874H31.2342C31.948 13.874 32.9208 13.5262 33.1592 12.6557C33.3946 11.7827 32.7146 11.199 32.0033 11.199" fill="#0060AF"/>
</g>
<defs>
<clipPath id="clip0_885_12905">
<rect width="65" height="20" fill="white" transform="translate(0.5)"/>
</clipPath>
</defs>
</svg>
