<svg width="64" height="22" viewBox="0 0 64 22" fill="none" xmlns="http://www.w3.org/2000/svg">
<g clip-path="url(#clip0_885_12922)">
<path fill-rule="evenodd" clip-rule="evenodd" d="M38.4025 0H42.2572L51.6525 12.5291V1.90916C51.6525 0.835223 50.1671 0.0396465 50.1671 0.0396465H54.9849C54.9849 0.0396465 53.7202 0.75579 53.7202 1.88941V17.9981C53.7202 17.9981 51.4918 17.1032 49.8055 14.8359C48.119 12.5687 41.7956 4.39508 41.7956 4.39508V15.2139C41.7956 15.9896 43.1204 16.9443 43.1204 16.9443H38.3627C38.3627 16.9443 39.6875 16.2283 39.6875 15.2737V2.0683C39.6875 0.636434 38.4025 0 38.4025 0ZM59.1353 12.527V1.89328C59.1353 0.817957 57.6417 0.0214129 57.6417 0.0214129H63.313C63.313 0.0214129 62.0416 0.738384 62.0416 1.87352V15.103C62.0416 16.1186 63.2525 16.9547 63.2525 16.9547H57.8031C57.8031 16.9547 59.1353 16.1381 59.1353 15.302V12.527ZM26.7967 1.71369V6.84494H29.2613C30.4034 6.84494 32.0267 6.24829 32.0267 4.1601C32.0267 2.07176 29.6222 1.71369 28.7804 1.71369H26.7967ZM26.7967 8.51553V15.1979H30.0429C31.3054 15.1979 33.6499 14.1241 33.6499 12.0359C33.6499 9.94754 31.7261 8.51553 29.9227 8.51553H26.7967ZM22.5975 0.015335H30.9285C32.7922 0.015335 34.9121 1.59447 34.9121 3.74235C34.9121 6.66591 32.6476 7.06376 32.6476 7.06376C32.6476 7.06376 36.6153 8.01835 36.6153 11.7771C36.6153 15.5363 32.2858 16.9547 30.8431 16.9547L22.4907 16.9335C22.4907 16.9335 23.9311 16.1925 23.9311 14.9397V2.05173C23.9311 0.739216 22.5975 0.015335 22.5975 0.015335Z" fill="#E55300"/>
<path fill-rule="evenodd" clip-rule="evenodd" d="M0.686523 16.9545H17.8073V0.0151367H0.686523V16.9545Z" fill="white"/>
<path fill-rule="evenodd" clip-rule="evenodd" d="M0.686523 0.0151367H6.03672C6.02122 0.0528477 5.98184 0.153142 5.93395 0.336325C5.69995 1.23178 5.3636 3.81702 7.71191 7.60482C8.2912 8.53937 8.85262 9.2819 9.42856 10.0085L7.56824 11.4802C4.48314 7.74255 0.686523 2.97959 0.686523 2.97959V0.0151367ZM0.686523 6.47327V16.9545L5.87392 12.8103L2.29791 8.40758L0.686523 6.47327ZM17.8073 5.41453C17.7692 5.36314 17.6106 5.12512 17.3782 4.88903C16.6672 4.16639 15.1295 3.00321 13.2768 3.99772C11.5655 4.91638 10.6902 7.02129 12.8242 9.80423C14.5777 12.094 16.1633 12.3176 17.0563 12.1883C17.21 12.1661 17.6847 12.0527 17.8073 11.9786V5.41453ZM17.8073 2.3444L17.8072 0.0151367H8.2838C8.27277 0.0561671 8.20352 0.198731 8.17601 0.437307C8.1143 0.97317 8.09252 1.99406 8.47662 3.44196C9.00397 5.4289 10.4707 7.20019 10.4707 7.20019C10.4707 7.20019 10.3198 5.22486 12.1604 3.39914C13.3249 2.2441 14.6454 1.88617 15.716 1.90261C16.094 1.90841 16.4414 1.95925 16.7402 2.02639C16.8661 2.05457 17.7094 2.29425 17.8073 2.3444ZM17.8073 12.8256C17.765 12.8608 17.6632 12.9255 17.4895 13.0426C17.0229 13.3572 16.0183 13.8215 14.3631 13.5753C12.8634 13.3521 11.4287 12.3639 10.1116 10.8261L8.22753 12.3211C9.55674 13.9038 10.586 15.1706 10.9313 15.4158C12.2311 16.339 13.126 15.9886 13.126 15.9886L11.9221 16.9545H17.8073V12.8256ZM8.92592 16.9545H2.39857L2.93138 16.5261L6.55555 13.6527C6.55555 13.6527 7.99213 15.4981 8.55732 16.1755C8.66427 16.3037 8.74567 16.4241 8.80753 16.5329C8.91908 16.7287 8.90498 16.8579 8.92592 16.9545Z" fill="#E55300"/>
<path fill-rule="evenodd" clip-rule="evenodd" d="M0.967773 21.2908H1.31376V19.011L2.12692 21.2908H2.46578L3.3112 18.9969V21.2908H3.66067V18.7427H3.07216L2.32672 20.8425L1.59901 18.7427H0.967773V21.2908ZM5.74914 20.4649C5.75626 20.1755 5.77414 19.4732 4.97159 19.4732C4.86813 19.4732 4.65423 19.4838 4.48291 19.6039C4.20115 19.798 4.1298 20.0872 4.1298 20.4366C4.1298 20.9978 4.39732 21.3437 4.96097 21.3437C5.3212 21.3437 5.4995 21.1954 5.57796 21.1072C5.70642 20.9696 5.72066 20.8248 5.73141 20.7367H5.39604C5.36756 20.9907 5.19275 21.1037 4.97521 21.1037C4.60787 21.1037 4.45443 20.832 4.46155 20.4649H5.74914ZM4.47579 20.232C4.48291 19.8402 4.74694 19.7097 4.96447 19.7097C5.37831 19.7097 5.41028 20.0626 5.40679 20.232H4.47579ZM6.17918 21.2908H6.51442V18.7499H6.17918V21.2908ZM8.48882 21.2908C8.46382 21.1108 8.46019 20.8743 8.46019 20.8461L8.47457 19.9991C8.47457 19.9179 8.47094 19.8332 8.41384 19.7274C8.31764 19.5474 8.03937 19.4661 7.77898 19.4661C7.58993 19.4661 7.33665 19.5086 7.20122 19.6568C7.09776 19.7767 7.087 19.9002 7.0764 19.9921H7.41163C7.41512 19.9215 7.43299 19.692 7.77186 19.692C7.86819 19.692 8.01438 19.7203 8.08224 19.8085C8.14632 19.8861 8.14632 19.9814 8.14632 20.2002C8.043 20.1932 7.98938 20.1896 7.9038 20.1896C7.7611 20.1896 7.47585 20.2002 7.28317 20.3061C7.01929 20.4579 6.96931 20.6838 6.96931 20.8248C6.96931 21.1178 7.19046 21.3471 7.60068 21.3471C7.75049 21.3471 7.99301 21.3189 8.15344 21.0261C8.15344 21.1178 8.1607 21.2025 8.18556 21.2908H8.48882ZM8.14632 20.4296C8.1392 20.6767 8.13571 20.7755 8.06073 20.8954C7.97878 21.0189 7.85032 21.086 7.67914 21.086C7.37951 21.086 7.30817 20.8919 7.30817 20.7789C7.30817 20.4191 7.81821 20.4191 7.95378 20.4191C8.03574 20.4191 8.08572 20.4225 8.14632 20.4296ZM10.6094 19.5192H10.2455L9.67491 20.9167L9.11488 19.5192H8.73679L9.48223 21.2836L9.21122 21.9612H9.55721L9.81397 21.3013L10.6094 19.5192ZM12.3163 21.2908C12.2913 21.1108 12.2877 20.8743 12.2877 20.8461L12.302 19.9991C12.302 19.9179 12.2984 19.8332 12.2413 19.7274C12.1451 19.5474 11.8668 19.4661 11.6064 19.4661C11.4174 19.4661 11.1641 19.5086 11.0287 19.6568C10.9252 19.7767 10.9145 19.9002 10.9039 19.9921H11.2391C11.2426 19.9215 11.2605 19.692 11.5993 19.692C11.6957 19.692 11.8418 19.7203 11.9097 19.8085C11.9738 19.8861 11.9738 19.9814 11.9738 20.2002C11.8705 20.1932 11.8169 20.1896 11.7313 20.1896C11.5886 20.1896 11.3033 20.2002 11.1106 20.3061C10.8468 20.4579 10.7968 20.6838 10.7968 20.8248C10.7968 21.1178 11.0179 21.3471 11.4281 21.3471C11.578 21.3471 11.8205 21.3189 11.9809 21.0261C11.9809 21.1178 11.9882 21.2025 12.013 21.2908H12.3163ZM11.9738 20.4296C11.9667 20.6767 11.9632 20.7755 11.8882 20.8954C11.8062 21.0189 11.6778 21.086 11.5066 21.086C11.207 21.086 11.1356 20.8919 11.1356 20.7789C11.1356 20.4191 11.6457 20.4191 11.7813 20.4191C11.8632 20.4191 11.9132 20.4225 11.9738 20.4296ZM12.846 21.2908H13.1814V20.2708C13.1814 19.9144 13.406 19.7415 13.6486 19.7415C13.7628 19.7415 13.8805 19.7803 13.9661 19.8614C14.048 19.9426 14.0624 20.0484 14.0624 20.1649V21.2908H14.4048V20.0872C14.4048 19.5438 13.9161 19.4838 13.7557 19.4838C13.3489 19.4838 13.2206 19.7308 13.1814 19.805L13.1778 19.5192H12.8425L12.846 19.7238V21.2908ZM14.9131 19.1133H15.3162V18.7499H14.9131V19.1133ZM14.9489 21.2908H15.2841V19.5192H14.9489V21.2908ZM16.9534 21.2908H17.278V19.1274L18.587 21.2908H19.0436V18.7427H18.7155V20.8495L17.4492 18.7427H16.9534V21.2908ZM21.1249 20.4649C21.132 20.1755 21.1499 19.4732 20.3474 19.4732C20.2439 19.4732 20.0299 19.4838 19.8587 19.6039C19.5769 19.798 19.5056 20.0872 19.5056 20.4366C19.5056 20.9978 19.7731 21.3437 20.3366 21.3437C20.697 21.3437 20.8753 21.1954 20.9538 21.1072C21.0822 20.9696 21.0964 20.8248 21.1071 20.7367H20.7718C20.7433 20.9907 20.5685 21.1037 20.351 21.1037C19.9835 21.1037 19.8302 20.832 19.8373 20.4649H21.1249ZM19.8516 20.232C19.8587 19.8402 20.1227 19.7097 20.3402 19.7097C20.754 19.7097 20.7861 20.0626 20.7826 20.232H19.8516ZM21.5121 21.4284C21.5263 21.6683 21.5477 22 22.2647 22C22.5108 22 22.8603 21.9648 23.0101 21.6824C23.0815 21.5483 23.0957 21.3754 23.0957 20.9484L23.0993 19.8402L23.1064 19.5192H22.7818L22.7783 19.7626C22.707 19.6709 22.575 19.4945 22.2147 19.4945C21.776 19.4945 21.4194 19.7873 21.4194 20.3873C21.4194 20.6237 21.4692 20.8602 21.6227 21.0402C21.7725 21.2236 22.0079 21.259 22.172 21.259C22.2789 21.259 22.6178 21.2518 22.7605 20.9589C22.7605 21.4388 22.7533 21.7741 22.286 21.7741C21.9687 21.7741 21.8831 21.6259 21.8687 21.4284H21.5121ZM22.2575 21.0118C21.8473 21.0118 21.7654 20.652 21.7654 20.3802C21.7654 20.1544 21.8223 19.7308 22.2468 19.7308C22.4002 19.7308 22.5429 19.7909 22.632 19.8861C22.7212 19.9778 22.7712 20.1049 22.7712 20.3273C22.7712 20.6484 22.7212 20.7437 22.6499 20.8354C22.5679 20.9413 22.4537 21.0118 22.2575 21.0118ZM25.1486 20.4649C25.1557 20.1755 25.1736 19.4732 24.371 19.4732C24.2675 19.4732 24.0536 19.4838 23.8823 19.6039C23.6006 19.798 23.5292 20.0872 23.5292 20.4366C23.5292 20.9978 23.7967 21.3437 24.3603 21.3437C24.7206 21.3437 24.8989 21.1954 24.9774 21.1072C25.1058 20.9696 25.1201 20.8248 25.1307 20.7367H24.7955C24.767 20.9907 24.5922 21.1037 24.3746 21.1037C24.0071 21.1037 23.8538 20.832 23.861 20.4649H25.1486ZM23.8752 20.232C23.8823 19.8402 24.1464 19.7097 24.3639 19.7097C24.7776 19.7097 24.8097 20.0626 24.8062 20.232H23.8752ZM25.5892 21.2908H25.9281V20.3485C25.9281 20.045 26.0208 19.8121 26.4168 19.8121C26.456 19.8121 26.4881 19.8121 26.5131 19.8155C26.5379 19.8191 26.5594 19.8226 26.5772 19.8297V19.505C26.5202 19.5015 26.4452 19.4979 26.3454 19.512C26.1956 19.5333 25.9816 19.6144 25.9173 19.8614L25.9102 19.5192H25.5713C25.5821 19.6356 25.5892 19.7591 25.5892 19.8791V21.2908ZM26.8574 19.1133H27.2605V18.7499H26.8574V19.1133ZM26.893 21.2908H27.2284V19.5192H26.893V21.2908ZM27.9008 20.8672L27.6725 21.7353H27.915L28.3145 20.8672H27.9008ZM29.8127 21.2908H30.1658V19.939L31.3535 21.2908H31.8528L30.576 19.8826L31.728 18.7427H31.2393L30.1658 19.8579V18.7427H29.8127V21.2908ZM33.5241 20.4649C33.5312 20.1755 33.5489 19.4732 32.7465 19.4732C32.6431 19.4732 32.429 19.4838 32.2579 19.6039C31.9761 19.798 31.9048 20.0872 31.9048 20.4366C31.9048 20.9978 32.1723 21.3437 32.7358 21.3437C33.096 21.3437 33.2743 21.1954 33.3528 21.1072C33.4812 20.9696 33.4955 20.8248 33.5062 20.7367H33.171C33.1424 20.9907 32.9676 21.1037 32.75 21.1037C32.3827 21.1037 32.2292 20.832 32.2364 20.4649H33.5241ZM32.2507 20.232C32.2579 19.8402 32.5217 19.7097 32.7393 19.7097C33.1531 19.7097 33.1852 20.0626 33.1816 20.232H32.2507ZM34.2821 18.7427H33.9469V20.973L33.9398 21.2908H34.2642L34.2714 21.0225C34.3071 21.0754 34.3463 21.1353 34.4462 21.2025C34.5996 21.3049 34.76 21.3153 34.8456 21.3153C35.0918 21.3153 35.3308 21.2131 35.4735 21.0118C35.5626 20.8954 35.6447 20.7083 35.6447 20.366C35.6447 19.9778 35.5234 19.8014 35.4343 19.6991C35.2701 19.5156 35.0454 19.4732 34.8671 19.4732C34.4604 19.4732 34.3285 19.6956 34.2821 19.7767V18.7427ZM35.2916 20.3873C35.2916 20.6767 35.1881 21.0754 34.7743 21.0754C34.275 21.0754 34.275 20.5214 34.275 20.405C34.275 20.292 34.275 19.6991 34.7887 19.6991C35.2558 19.6991 35.2916 20.2109 35.2916 20.3873ZM37.4514 21.2908C37.4264 21.1108 37.4229 20.8743 37.4229 20.8461L37.4372 19.9991C37.4372 19.9179 37.4335 19.8332 37.3764 19.7274C37.2802 19.5474 37.0019 19.4661 36.7416 19.4661C36.5525 19.4661 36.2994 19.5086 36.1638 19.6568C36.0603 19.7767 36.0496 19.9002 36.039 19.9921H36.3742C36.3778 19.9215 36.3956 19.692 36.7344 19.692C36.8308 19.692 36.977 19.7203 37.0448 19.8085C37.1089 19.8861 37.1089 19.9814 37.1089 20.2002C37.0056 20.1932 36.952 20.1896 36.8664 20.1896C36.7237 20.1896 36.4384 20.2002 36.2458 20.3061C35.9819 20.4579 35.9319 20.6838 35.9319 20.8248C35.9319 21.1178 36.153 21.3471 36.5633 21.3471C36.7131 21.3471 36.9556 21.3189 37.1162 21.0261C37.1162 21.1178 37.1233 21.2025 37.1481 21.2908H37.4514ZM37.1089 20.4296C37.1018 20.6767 37.0983 20.7755 37.0233 20.8954C36.9414 21.0189 36.8129 21.086 36.6417 21.086C36.3421 21.086 36.2707 20.8919 36.2707 20.7789C36.2707 20.4191 36.7808 20.4191 36.9164 20.4191C36.9985 20.4191 37.0483 20.4225 37.1089 20.4296ZM37.9813 21.2908H38.3165V20.2708C38.3165 19.9144 38.5411 19.7415 38.7837 19.7415C38.8979 19.7415 39.0156 19.7803 39.1012 19.8614C39.1833 19.9426 39.1975 20.0484 39.1975 20.1649V21.2908H39.5399V20.0872C39.5399 19.5438 39.0512 19.4838 38.8908 19.4838C38.4842 19.4838 38.3557 19.7308 38.3165 19.805L38.3129 19.5192H37.9776L37.9813 19.7238V21.2908ZM40.0447 21.4284C40.059 21.6683 40.0803 22 40.7973 22C41.0435 22 41.3929 21.9648 41.5428 21.6824C41.6141 21.5483 41.6283 21.3754 41.6283 20.9484L41.632 19.8402L41.6391 19.5192H41.3145L41.311 19.7626C41.2396 19.6709 41.1077 19.4945 40.7475 19.4945C40.3086 19.4945 39.952 19.7873 39.952 20.3873C39.952 20.6237 40.0019 20.8602 40.1553 21.0402C40.3051 21.2236 40.5405 21.259 40.7046 21.259C40.8115 21.259 41.1504 21.2518 41.2931 20.9589C41.2931 21.4388 41.286 21.7741 40.8188 21.7741C40.5013 21.7741 40.4157 21.6259 40.4015 21.4284H40.0447ZM40.7902 21.0118C40.38 21.0118 40.298 20.652 40.298 20.3802C40.298 20.1544 40.355 19.7308 40.7794 19.7308C40.9329 19.7308 41.0756 19.7909 41.1647 19.8861C41.2539 19.9778 41.3039 20.1049 41.3039 20.3273C41.3039 20.6484 41.2539 20.7437 41.1825 20.8354C41.1006 20.9413 40.9864 21.0118 40.7902 21.0118ZM42.1547 21.4284C42.169 21.6683 42.1903 22 42.9073 22C43.1533 22 43.5029 21.9648 43.6527 21.6824C43.7241 21.5483 43.7383 21.3754 43.7383 20.9484L43.7419 19.8402L43.7491 19.5192H43.4244L43.4208 19.7626C43.3496 19.6709 43.2175 19.4945 42.8573 19.4945C42.4186 19.4945 42.0619 19.7873 42.0619 20.3873C42.0619 20.6237 42.1119 20.8602 42.2652 21.0402C42.415 21.2236 42.6504 21.259 42.8146 21.259C42.9215 21.259 43.2604 21.2518 43.4031 20.9589C43.4031 21.4388 43.396 21.7741 42.9286 21.7741C42.6111 21.7741 42.5256 21.6259 42.5113 21.4284H42.1547ZM42.9002 21.0118C42.49 21.0118 42.4079 20.652 42.4079 20.3802C42.4079 20.1544 42.465 19.7308 42.8894 19.7308C43.0429 19.7308 43.1854 19.7909 43.2746 19.8861C43.3638 19.9778 43.4137 20.1049 43.4137 20.3273C43.4137 20.6484 43.3638 20.7437 43.2925 20.8354C43.2104 20.9413 43.0963 21.0118 42.9002 21.0118ZM45.6235 21.2908C45.5985 21.1108 45.595 20.8743 45.595 20.8461L45.6093 19.9991C45.6093 19.9179 45.6056 19.8332 45.5487 19.7274C45.4523 19.5474 45.1741 19.4661 44.9137 19.4661C44.7247 19.4661 44.4715 19.5086 44.3359 19.6568C44.2324 19.7767 44.2218 19.9002 44.2111 19.9921H44.5463C44.5499 19.9215 44.5678 19.692 44.9065 19.692C45.0029 19.692 45.1492 19.7203 45.2169 19.8085C45.2811 19.8861 45.2811 19.9814 45.2811 20.2002C45.1777 20.1932 45.1242 20.1896 45.0386 20.1896C44.8959 20.1896 44.6105 20.2002 44.418 20.3061C44.154 20.4579 44.104 20.6838 44.104 20.8248C44.104 21.1178 44.3251 21.3471 44.7354 21.3471C44.8852 21.3471 45.1277 21.3189 45.2883 21.0261C45.2883 21.1178 45.2954 21.2025 45.3204 21.2908H45.6235ZM45.2811 20.4296C45.274 20.6767 45.2704 20.7755 45.1956 20.8954C45.1135 21.0189 44.985 21.086 44.8138 21.086C44.5142 21.086 44.4429 20.8919 44.4429 20.7789C44.4429 20.4191 44.9529 20.4191 45.0885 20.4191C45.1706 20.4191 45.2204 20.4225 45.2811 20.4296ZM47.5373 21.2908C47.5123 21.1108 47.5087 20.8743 47.5087 20.8461L47.5229 19.9991C47.5229 19.9179 47.5194 19.8332 47.4623 19.7274C47.366 19.5474 47.0879 19.4661 46.8275 19.4661C46.6384 19.4661 46.3851 19.5086 46.2497 19.6568C46.1462 19.7767 46.1355 19.9002 46.1247 19.9921H46.4601C46.4636 19.9215 46.4815 19.692 46.8203 19.692C46.9167 19.692 47.0629 19.7203 47.1306 19.8085C47.1948 19.8861 47.1948 19.9814 47.1948 20.2002C47.0913 20.1932 47.0379 20.1896 46.9523 20.1896C46.8096 20.1896 46.5243 20.2002 46.3317 20.3061C46.0678 20.4579 46.0178 20.6838 46.0178 20.8248C46.0178 21.1178 46.239 21.3471 46.6492 21.3471C46.799 21.3471 47.0415 21.3189 47.2019 21.0261C47.2019 21.1178 47.209 21.2025 47.234 21.2908H47.5373ZM47.1948 20.4296C47.1877 20.6767 47.1842 20.7755 47.1092 20.8954C47.0273 21.0189 46.8988 21.086 46.7276 21.086C46.428 21.086 46.3567 20.8919 46.3567 20.7789C46.3567 20.4191 46.8667 20.4191 47.0023 20.4191C47.0842 20.4191 47.1342 20.4225 47.1948 20.4296ZM48.067 21.2908H48.4024V20.2708C48.4024 19.9144 48.6271 19.7415 48.8696 19.7415C48.9838 19.7415 49.1015 19.7803 49.1871 19.8614C49.269 19.9426 49.2834 20.0484 49.2834 20.1649V21.2908H49.6258V20.0872C49.6258 19.5438 49.1371 19.4838 48.9767 19.4838C48.57 19.4838 48.4416 19.7308 48.4024 19.805L48.3988 19.5192H48.0635L48.067 19.7238V21.2908ZM51.2522 21.2908H52.1904C52.3937 21.2908 52.5933 21.2908 52.7717 21.1742C52.8573 21.1178 53.082 20.9413 53.082 20.5955C53.082 20.1085 52.7181 20.0026 52.5685 19.9603C52.6933 19.9144 53.0035 19.805 53.0035 19.385C53.0035 19.1839 52.9322 19.0357 52.8216 18.9297C52.6612 18.7744 52.4864 18.7427 52.1725 18.7427H51.2522V21.2908ZM51.5982 19.0321H52.1119C52.3081 19.0321 52.6325 19.0321 52.6325 19.4168C52.6325 19.8191 52.2188 19.8191 52.0975 19.8191H51.5982V19.0321ZM51.5982 20.1226H52.2225C52.5363 20.1226 52.7146 20.3097 52.7146 20.5637C52.7146 20.8566 52.49 21.0048 52.2081 21.0048H51.5982V20.1226ZM54.9316 21.2908C54.9066 21.1108 54.9031 20.8743 54.9031 20.8461L54.9173 19.9991C54.9173 19.9179 54.9137 19.8332 54.8566 19.7274C54.7604 19.5474 54.4821 19.4661 54.2217 19.4661C54.0327 19.4661 53.7794 19.5086 53.644 19.6568C53.5405 19.7767 53.5298 19.9002 53.5191 19.9921H53.8544C53.8579 19.9215 53.8757 19.692 54.2146 19.692C54.3109 19.692 54.4571 19.7203 54.525 19.8085C54.5891 19.8861 54.5891 19.9814 54.5891 20.2002C54.4858 20.1932 54.4321 20.1896 54.3465 20.1896C54.2039 20.1896 53.9186 20.2002 53.7259 20.3061C53.462 20.4579 53.4121 20.6838 53.4121 20.8248C53.4121 21.1178 53.6332 21.3471 54.0434 21.3471C54.1932 21.3471 54.4358 21.3189 54.5963 21.0261C54.5963 21.1178 54.6035 21.2025 54.6283 21.2908H54.9316ZM54.5891 20.4296C54.582 20.6767 54.5785 20.7755 54.5035 20.8954C54.4215 21.0189 54.2931 21.086 54.1219 21.086C53.8223 21.086 53.7509 20.8919 53.7509 20.7789C53.7509 20.4191 54.261 20.4191 54.3965 20.4191C54.4786 20.4191 54.5285 20.4225 54.5891 20.4296ZM55.4613 21.2908H55.7967V20.2708C55.7967 19.9144 56.0213 19.7415 56.2638 19.7415C56.3781 19.7415 56.4958 19.7803 56.5813 19.8614C56.6634 19.9426 56.6777 20.0484 56.6777 20.1649V21.2908H57.02V20.0872C57.02 19.5438 56.5314 19.4838 56.3709 19.4838C55.9642 19.4838 55.8359 19.7308 55.7967 19.805L55.793 19.5192H55.4578L55.4613 19.7238V21.2908ZM57.5249 21.4284C57.5392 21.6683 57.5605 22 58.2775 22C58.5236 22 58.8731 21.9648 59.0229 21.6824C59.0943 21.5483 59.1085 21.3754 59.1085 20.9484L59.1121 19.8402L59.1193 19.5192H58.7946L58.7911 19.7626C58.7198 19.6709 58.5879 19.4945 58.2276 19.4945C57.7888 19.4945 57.4322 19.7873 57.4322 20.3873C57.4322 20.6237 57.4821 20.8602 57.6355 21.0402C57.7853 21.2236 58.0207 21.259 58.1848 21.259C58.2917 21.259 58.6306 21.2518 58.7733 20.9589C58.7733 21.4388 58.7662 21.7741 58.2988 21.7741C57.9815 21.7741 57.8959 21.6259 57.8816 21.4284H57.5249ZM58.2704 21.0118C57.8601 21.0118 57.7782 20.652 57.7782 20.3802C57.7782 20.1544 57.8352 19.7308 58.2596 19.7308C58.4131 19.7308 58.5557 19.7909 58.6448 19.8861C58.734 19.9778 58.784 20.1049 58.784 20.3273C58.784 20.6484 58.734 20.7437 58.6627 20.8354C58.5807 20.9413 58.4665 21.0118 58.2704 21.0118ZM59.5099 20.7648C59.5064 21.1918 59.8453 21.3401 60.209 21.3401C60.3946 21.3401 60.5836 21.3153 60.7406 21.2202C60.8725 21.1389 60.9831 20.9696 60.9831 20.7719C60.9831 20.659 60.9473 20.5355 60.8475 20.4438C60.7406 20.3449 60.6335 20.3167 60.1378 20.2002C60.045 20.1755 59.8845 20.1367 59.8845 19.9744C59.8845 19.7203 60.1984 19.7203 60.2483 19.7203C60.3696 19.7203 60.605 19.7415 60.5942 20.0096H60.9367C60.9367 19.9356 60.9367 19.8509 60.8904 19.7521C60.7833 19.5403 60.4694 19.4768 60.2448 19.4768C59.8311 19.4768 59.5457 19.6886 59.5457 20.0132C59.5457 20.3837 59.8595 20.4579 60.234 20.5426C60.5015 20.6025 60.6263 20.6343 60.6263 20.8072C60.6263 20.8672 60.605 20.9272 60.5694 20.973C60.498 21.0613 60.3946 21.086 60.2555 21.086C59.9309 21.086 59.8595 20.899 59.863 20.7648H59.5099ZM62.779 21.2908C62.7542 21.1108 62.7506 20.8743 62.7506 20.8461L62.7648 19.9991C62.7648 19.9179 62.7613 19.8332 62.7042 19.7274C62.6079 19.5474 62.3297 19.4661 62.0693 19.4661C61.8803 19.4661 61.627 19.5086 61.4914 19.6568C61.388 19.7767 61.3774 19.9002 61.3666 19.9921H61.702C61.7055 19.9215 61.7234 19.692 62.0622 19.692C62.1584 19.692 62.3047 19.7203 62.3725 19.8085C62.4367 19.8861 62.4367 19.9814 62.4367 20.2002C62.3332 20.1932 62.2798 20.1896 62.1942 20.1896C62.0515 20.1896 61.7661 20.2002 61.5735 20.3061C61.3095 20.4579 61.2597 20.6838 61.2597 20.8248C61.2597 21.1178 61.4808 21.3471 61.8909 21.3471C62.0407 21.3471 62.2834 21.3189 62.4438 21.0261C62.4438 21.1178 62.4509 21.2025 62.4759 21.2908H62.779ZM62.4367 20.4296C62.4296 20.6767 62.4259 20.7755 62.3511 20.8954C62.269 21.0189 62.1407 21.086 61.9694 21.086C61.6699 21.086 61.5985 20.8919 61.5985 20.7789C61.5985 20.4191 62.1086 20.4191 62.2442 20.4191C62.3261 20.4191 62.3761 20.4225 62.4367 20.4296Z" fill="#E55300"/>
</g>
<defs>
<clipPath id="clip0_885_12922">
<rect width="63" height="22" fill="white" transform="translate(0.5)"/>
</clipPath>
</defs>
</svg>
