<svg width="58" height="22" viewBox="0 0 58 22" fill="none" xmlns="http://www.w3.org/2000/svg">
<path d="M18.9294 0.399414H4.19284C2.40597 0.399414 0.956055 1.8824 0.956055 3.71414V18.2854C0.956055 20.1003 2.37729 21.574 4.14434 21.6002L18.9189 21.6006C20.7057 21.6006 22.159 20.1172 22.159 18.2854L22.1662 3.71414C22.1662 1.8824 20.7159 0.399414 18.9294 0.399414ZM5.94429 19.9019L5.14005 19.9116C4.16627 19.9116 3.38017 19.111 3.38017 18.1271L3.37426 17.9851V4.52913L3.38017 3.80385C3.41939 2.85197 4.14266 2.08289 5.09155 2.08289H6.72492C8.20815 2.08289 9.40755 3.36961 9.40755 4.88503C9.40755 5.63769 9.11234 6.31706 8.63494 6.81363L4.46697 11.0356L8.37515 15.0116C8.87701 15.5313 9.18066 16.2132 9.18066 16.9583C9.18066 18.5836 7.73454 19.9019 5.94429 19.9019ZM17.9594 19.8897L10.6723 19.8876C10.6723 19.8876 11.5149 18.0673 11.5149 16.9423C11.5149 15.5705 11.0557 14.3427 10.3366 13.5324L7.84546 10.9943L10.386 8.37202C11.1464 7.65853 11.6482 6.39624 11.6482 4.96042C11.6482 3.8228 11.3336 2.81491 10.8241 2.08289H12.5908C14.0727 2.08289 15.2734 3.36961 15.2734 4.88503C15.2734 5.63769 14.9795 6.31706 14.5033 6.81363L10.4125 10.9926L18.9062 19.6433C18.6355 19.8127 18.2972 19.8897 17.9594 19.8897ZM19.737 17.1878L13.6493 10.9914L16.5483 8.04981C17.1392 7.31063 17.5153 6.20081 17.5153 4.96042C17.5153 3.81606 17.1948 2.78163 16.6833 2.05004L17.9792 2.09047C18.9513 2.09047 19.7421 2.88862 19.7421 3.87545L19.737 17.1878Z" fill="#00529C"/>
<path d="M35.2282 10.0044C35.3467 9.88609 35.4867 9.73362 35.6482 9.54703C35.8093 9.36045 35.962 9.14017 36.1062 8.88577C36.2505 8.63138 36.3736 8.34792 36.4752 8.03414C36.5773 7.72078 36.6283 7.38593 36.6283 7.03003C36.6283 6.3355 36.5094 5.6873 36.272 5.08543C36.0341 4.48397 35.6693 3.95833 35.1771 3.50893C34.685 3.06037 34.0701 2.70826 33.3317 2.45386C32.5936 2.19989 31.732 2.07269 30.7481 2.07269H30.7211H27.8922H27.1558H24.2568V5.31329V16.532V19.8682H31.3845C32.4194 19.8682 33.3228 19.7283 34.0954 19.4487C34.8672 19.169 35.5082 18.7836 36.0172 18.2921C36.5263 17.8006 36.9037 17.2286 37.15 16.5762C37.3959 15.9238 37.519 15.2246 37.519 14.4787C37.519 13.4788 37.29 12.5893 36.832 11.8092C36.3736 11.03 35.8388 10.4282 35.2282 10.0044ZM32.0766 5.3335C32.3165 5.4249 32.5169 5.54367 32.6733 5.6932C33.0786 6.08153 33.2815 6.54567 33.2815 7.08563C33.2815 7.57547 33.1967 7.98023 33.028 8.30075C32.8589 8.62169 32.6898 8.8664 32.5211 9.03487H27.5662V5.12333H30.6461C31.2234 5.12333 31.6987 5.19451 32.0766 5.3335ZM31.5625 12.1146C32.4595 12.1146 33.1242 12.3466 33.5569 12.81C33.9638 13.2661 34.1688 13.8044 34.1688 14.4273C34.1688 15.0692 33.9364 15.6171 33.4717 16.0729C33.0065 16.5286 32.2423 16.7569 31.1774 16.7569H30.7798H27.5662V12.1146H31.5625Z" fill="#00529C"/>
<path d="M49.6034 12.2034C50.1377 11.8391 50.5835 11.4154 50.9398 10.9323C51.2962 10.4492 51.5589 9.91557 51.7289 9.33097C51.8984 8.74594 51.9836 8.1487 51.9836 7.5384C51.9836 6.74194 51.8516 6.00908 51.5889 5.3394C51.3253 4.67014 50.931 4.09396 50.4051 3.61086C49.8787 3.12776 49.2213 2.7508 48.4322 2.47956C47.6431 2.20873 46.7309 2.07269 45.696 2.07269H45.6028H38.7467H38.6826V19.8682H42.056V13.2585H43.937L48.5891 19.8682H52.5432L47.7326 13.0298C48.4449 12.8436 49.0686 12.5682 49.6034 12.2034ZM45.7213 5.12333C45.9334 5.12333 46.1338 5.13723 46.3244 5.16124C46.9258 5.25179 47.4171 5.46618 47.7958 5.80691C48.3112 6.27148 48.5688 6.84092 48.5688 7.51566C48.5688 7.85387 48.5136 8.18282 48.4039 8.50334C48.2939 8.82428 48.121 9.1069 47.8844 9.35118C47.6474 9.59631 47.3433 9.79427 46.9717 9.94632C46.5998 10.0984 46.1519 10.1742 45.6281 10.1742H42.056V5.12333H45.7213Z" fill="#00529C"/>
<path d="M53.7343 2.07269V2.07775C53.7002 2.0769 53.6668 2.07269 53.6327 2.07269H53.604V2.07395V8.59684V13.2707V19.8682H57.0436V2.07269H53.7343Z" fill="#00529C"/>
</svg>
