<svg width="78" height="22" viewBox="0 0 78 22" fill="none" xmlns="http://www.w3.org/2000/svg">
<path d="M0.157121 15.0551C0.157121 13.9812 0.135178 13.0758 0.078125 12.2714H2.19786L2.2988 13.657H2.36024C2.83861 12.9284 3.72073 12.0609 5.3621 12.0609C6.6436 12.0609 7.64422 12.7515 8.06114 13.7875H8.10064C8.43857 13.2695 8.83794 12.8863 9.29875 12.6168C9.83856 12.2504 10.4618 12.0567 11.2605 12.0567C12.8799 12.0567 14.5213 13.1137 14.5213 16.108V21.6164H12.1207V16.4533C12.1207 14.8993 11.5589 13.977 10.3784 13.977C9.54013 13.977 8.91694 14.554 8.658 15.2236C8.59656 15.451 8.53951 15.7416 8.53951 16.0069V21.6122H6.1389V16.1964C6.1389 14.8951 5.59909 13.9728 4.45803 13.9728C3.5408 13.9728 2.9176 14.6635 2.69817 15.3162C2.59723 15.5521 2.55773 15.8216 2.55773 16.0911V21.6206H0.157121V15.0551Z" fill="#003D79"/>
<path d="M23.8709 19.3754C23.8709 20.2176 23.9104 21.043 24.0113 21.62H21.7906L21.6326 20.584H21.5712C20.9699 21.3126 19.9518 21.8306 18.6922 21.8306C16.7305 21.8306 15.6289 20.4703 15.6289 19.0469C15.6289 16.6843 17.8057 15.4967 21.4088 15.5136V15.362C21.4088 14.7471 21.1455 13.728 19.4295 13.728C18.4684 13.728 17.4678 14.0185 16.8095 14.4186L16.3311 12.8815C17.0508 12.4604 18.3104 12.0561 19.8508 12.0561C22.9712 12.0561 23.8752 13.9596 23.8752 15.9937V19.3754H23.8709ZM21.4702 17.0549C19.7279 17.017 18.069 17.3792 18.069 18.7984C18.069 19.7207 18.6922 20.1418 19.469 20.1418C20.4477 20.1418 21.1674 19.527 21.3869 18.8532C21.4483 18.6805 21.4659 18.491 21.4659 18.3352V17.0549H21.4702Z" fill="#003D79"/>
<path d="M25.5707 15.0551C25.5707 13.9812 25.5488 13.0758 25.4917 12.2714H27.6509L27.7694 13.6738H27.8309C28.2522 12.9453 29.3099 12.0567 30.9293 12.0567C32.6321 12.0567 34.392 13.1137 34.392 16.0701V21.6164H31.9299V16.3396C31.9299 14.9962 31.4076 13.977 30.0691 13.977C29.0904 13.977 28.4102 14.6509 28.1469 15.3584C28.0722 15.5731 28.0503 15.8637 28.0503 16.129V21.6206H25.5707V15.0551Z" fill="#003D79"/>
<path d="M45.0587 8.51726V18.9908C45.0587 19.951 45.0982 20.987 45.1377 21.6229H42.9389L42.838 20.1448H42.7985C42.2192 21.1807 41.0386 21.8335 39.6167 21.8335C37.2951 21.8335 35.4562 19.9342 35.4562 17.0536C35.4343 13.9246 37.475 12.059 39.8142 12.059C41.1527 12.059 42.1139 12.598 42.5527 13.2887H42.5922L42.601 8.51726H45.0587ZM42.601 16.1693C42.601 15.9797 42.5791 15.7481 42.5396 15.5544C42.3201 14.6363 41.5389 13.8867 40.4198 13.8867C38.8399 13.8867 37.9578 15.2301 37.9578 16.9778C37.9578 18.6834 38.8399 19.9342 40.4023 19.9342C41.3985 19.9342 42.2806 19.2814 42.522 18.2623C42.5835 18.0517 42.601 17.8201 42.601 17.5716V16.1693Z" fill="#003D79"/>
<path d="M46.7983 12.2705H49.2806V21.6197H46.7983V12.2705Z" fill="#003D79"/>
<path d="M51.0194 15.2868C51.0194 14.0192 50.9975 13.1179 50.9404 12.2714H53.0821L53.1611 14.0528H53.2401C53.7185 12.7305 54.8595 12.2714 55.904 12.2714C56.141 12.2714 56.2815 12.2335 56.4833 12.2714V14.3476C56.2858 14.3097 56.0664 14.2718 55.7636 14.2718C54.583 14.2718 53.7799 15.0004 53.5605 16.0532C53.521 16.2638 53.4815 16.5165 53.4815 16.786V21.6206H51.0194V15.2868Z" fill="#003D79"/>
<path d="M57.6226 12.2705H60.1013V21.6197H57.6226V12.2705Z" fill="#003D79"/>
<path d="M57.1163 0.956259C55.6241 1.78589 50.7571 4.45587 50.7571 4.45587C48.9314 5.18022 47.5314 4.30007 47.0793 3.65152C47.0574 3.62625 47.0398 3.59678 47.0267 3.57572L46.9652 3.47884L46.658 2.99455C46.5264 2.79662 46.3815 2.59026 46.2104 2.37969C46.0612 2.19439 45.8944 2.01331 45.7145 1.83644C44.5427 0.699378 42.6643 -0.100784 39.5396 1.32686C37.6481 2.36285 33.2506 4.77594 33.2506 4.77594C31.4425 5.76981 30.0337 6.54049 30.0337 6.54049L31.697 8.50298C32.3992 9.14311 33.7158 10.1959 35.7521 9.30734C35.7521 9.30734 41.3784 6.18253 41.4004 6.17411C46.2104 3.64309 48.5847 6.0604 49.6292 7.67334C49.6643 7.72387 49.695 7.77862 49.7301 7.82494L49.7345 7.82916C49.7477 7.85021 49.7564 7.86706 49.7652 7.8839L49.8837 8.0692C50.3928 8.81461 51.2003 9.29469 52.1614 9.26942C52.6925 9.261 53.0523 9.09257 53.5746 8.81462L59.0166 5.78667C59.021 5.78667 59.021 5.78245 59.0297 5.78245C63.8968 3.21775 66.3106 5.79508 67.3419 7.40802C67.4209 7.547 67.5131 7.68176 67.6052 7.80389C68.1143 8.46928 68.8209 8.90305 69.7118 8.88199C70.2999 8.86935 70.9626 8.53246 71.0635 8.46929L77.5895 4.85596C77.5895 4.85596 76.9224 3.89156 75.5487 2.38391C74.3199 1.04049 73.0165 1.64692 71.9807 2.14386C71.5463 2.35021 68.3952 4.06422 68.3952 4.06422C66.6704 4.74646 65.3275 4.00105 64.7965 3.37356C64.7438 3.30618 64.6955 3.24724 64.6604 3.18407L64.5375 2.98191C64.3488 2.67448 64.1206 2.32916 63.8441 1.98804C63.6949 1.80274 63.5281 1.61745 63.3482 1.44479C62.6241 0.741495 61.6322 0.168741 60.241 0.168741C59.3589 0.168741 58.3319 0.39194 57.1163 0.956259Z" fill="#FFB700"/>
</svg>
