<svg width="36" height="36" viewBox="0 0 36 36" fill="none" xmlns="http://www.w3.org/2000/svg">
<path d="M33 18V25.5C33 30 30 33 25.5 33H10.5C6 33 3 30 3 25.5V18C3 13.92 5.46 11.07 9.285 10.59C9.675 10.53 10.08 10.5 10.5 10.5H25.5C25.89 10.5 26.265 10.515 26.625 10.575C30.495 11.025 33 13.89 33 18Z" stroke="#6E4EE4" stroke-width="2.25" stroke-linecap="round" stroke-linejoin="round"/>
<path d="M33.0001 18.7499H28.5001C26.8501 18.7499 25.5001 20.0999 25.5001 21.7499C25.5001 23.3999 26.8501 24.7499 28.5001 24.7499H33.0001M26.6266 10.5749C26.2666 10.5149 25.8916 10.4999 25.5016 10.4999H10.5016C10.0816 10.4999 9.67662 10.5299 9.28662 10.5899C9.49662 10.1699 9.79662 9.77994 10.1566 9.41994L15.0316 4.52994C16.0216 3.54981 17.3585 3 18.7516 3C20.1448 3 21.4816 3.54981 22.4716 4.52994L25.0966 7.18494C26.0566 8.12994 26.5666 9.32994 26.6266 10.5749Z" stroke="#6E4EE4" stroke-width="2.25" stroke-linecap="round" stroke-linejoin="round"/>
</svg>
